<svg xmlns="http://www.w3.org/2000/svg" version="1.1" xmlns:xlink="http://www.w3.org/1999/xlink" viewBox="0 0 200 200"><rect width="200" height="200" fill="url('#gradient')"></rect><defs><linearGradient id="gradient" gradientTransform="rotate(45 0.5 0.5)"><stop offset="0%" stop-color="#6f00bc"></stop><stop offset="100%" stop-color="#fefbf8"></stop></linearGradient></defs><g><g fill="#191718" transform="matrix(7.694539100043687,0,0,7.694539100043687,5.740917067811083,157.70904325032765)" stroke="#1a1b1a" stroke-width="0"><path d="M8.87 0L6.36-5.02L4.50-5.02L4.50 0L1.07 0L1.07-14.22L6.67-14.22Q9.20-14.22 10.63-13.10Q12.05-11.97 12.05-9.92L12.05-9.92Q12.05-8.44 11.45-7.46Q10.85-6.48 9.57-5.88L9.57-5.88L12.54-0.15L12.54 0L8.87 0ZM4.50-11.57L4.50-7.67L6.67-7.67Q7.65-7.67 8.14-8.18Q8.63-8.69 8.63-9.61Q8.63-10.53 8.13-11.05Q7.64-11.57 6.67-11.57L6.67-11.57L4.50-11.57ZM17.19-15L17.19-9.43Q18.24-10.76 19.88-10.76L19.88-10.76Q21.63-10.76 22.52-9.73Q23.41-8.69 23.43-6.67L23.43-6.67L23.43 0L20.13 0L20.13-6.59Q20.13-7.43 19.79-7.83Q19.44-8.22 18.62-8.22L18.62-8.22Q17.61-8.22 17.19-7.58L17.19-7.58L17.19 0L13.90 0L13.90-15L17.19-15Z"></path></g></g></svg>